<svg id="图层_1" data-name="图层 1" xmlns="http://www.w3.org/2000/svg" viewBox="0 0 818.18 819.11"><defs><style>.cls-1{fill:#5e4398;}.cls-2{fill:none;}</style></defs><title>附件</title><path class="cls-1" d="M379.64,770.17C287.28,841.22,153.77,835,68.85,751A230.86,230.86,0,0,1,49.5,443.68L48,442.24,443.53,51.16c69-68.21,180.82-68.21,249.8,0a173.31,173.31,0,0,1,0,247L318.65,668.68c-46,45.46-120.56,45.46-166.52,0a115.53,115.53,0,0,1,0-164.68l333-329.33,41.61,41.17-333,329.33a57.73,57.73,0,0,0,0,82.33,59.29,59.29,0,0,0,83.24,0L651.69,257a115.56,115.56,0,0,0,0-164.68c-46-45.47-120.55-45.47-166.52,0L110.49,462.83a173.3,173.3,0,0,0,0,247c69,68.22,180.82,68.22,249.8,0L776.57,298.18l41.61,41.17L381.08,771.6Zm0,0"/><rect id="SVGID" class="cls-2" y="-0.61" width="818.88" height="820.72"/></svg>