<svg id="图层_1" data-name="图层 1" xmlns="http://www.w3.org/2000/svg" viewBox="0 0 839.08 762.08"><defs><style>.cls-1{fill:#707070;}</style></defs><title>删除</title><path class="cls-1" d="M225.86,568a34.5,34.5,0,0,1,34.45-34.48H570.58a34.48,34.48,0,0,1,0,69H260.31A34.49,34.49,0,0,1,225.86,568Z"/><path class="cls-1" d="M225.86,378.45A34.5,34.5,0,0,1,260.31,344H570.58a34.48,34.48,0,0,1,0,69H260.31a34.5,34.5,0,0,1-34.45-34.48Z"/><path class="cls-1" d="M691.72,196V693.23H147.36V196H77.5V696.34a65.73,65.73,0,0,0,65.73,65.74H695.84a65.73,65.73,0,0,0,65.73-65.74V196Z"/><rect class="cls-1" y="162.09" width="839.08" height="71.93" rx="35.96" ry="35.96"/><path class="cls-1" d="M253,132V70H580.89v62h77.17V42.84A42.84,42.84,0,0,0,615.23,0H223.85A42.84,42.84,0,0,0,181,42.84V132Z"/></svg>