<svg id="图层_1" data-name="图层 1" xmlns="http://www.w3.org/2000/svg" xmlns:xlink="http://www.w3.org/1999/xlink" viewBox="0 0 645.84 694.8"><defs><style>.cls-1{fill:none;}.cls-2{clip-path:url(#clip-path);}.cls-3{fill:#8a8a8a;}</style><clipPath id="clip-path"><rect id="SVGID" class="cls-1" width="645.84" height="694.8"/></clipPath></defs><title>编辑</title><g class="cls-2"><path class="cls-3" d="M618.85,637.21c15,0,27,12.65,27,28.31s-12.06,28.32-27,28.32H27.05c-15,0-27-12.65-27-28.32s12.07-28.31,27.05-28.31ZM25.79,598.87l64.9-182,105.77,111Zm192.37-91.76L111.51,395.22,401.57,93.28l106.75,111.9ZM528.07,181.83,421.42,69.93,474.84,14a43.89,43.89,0,0,1,64,0l42.62,44.76c17.71,18.49,17.71,48.65,0,67.14Zm0,0"/></g></svg>