<?xml version="1.0" standalone="no"?><!DOCTYPE svg PUBLIC "-//W3C//DTD SVG 1.1//EN" "http://www.w3.org/Graphics/SVG/1.1/DTD/svg11.dtd"><svg t="1544152940299" class="icon" style="" viewBox="0 0 1024 1024" version="1.1" xmlns="http://www.w3.org/2000/svg" p-id="5638" xmlns:xlink="http://www.w3.org/1999/xlink" width="200" height="200"><defs><style type="text/css"></style></defs><path d="M512 96C282.2 96 96 282.2 96 512s186.2 416 416 416 416-186.2 416-416S741.8 96 512 96z m105.4 566.6L512 557.2l-105.4 105.4c-12.4 12.4-32.8 12.4-45.2 0-6.2-6.2-9.4-14.4-9.4-22.6 0-8.2 3.2-16.4 9.4-22.6l105.4-105.4-105.4-105.4c-6.2-6.2-9.4-14.4-9.4-22.6 0-8.2 3.2-16.4 9.4-22.6 12.4-12.4 32.8-12.4 45.2 0l105.4 105.4 105.4-105.4c12.4-12.4 32.8-12.4 45.2 0 12.4 12.4 12.4 32.8 0 45.2L557.2 512l105.4 105.4c12.4 12.4 12.4 32.8 0 45.2-12.4 12.6-32.8 12.6-45.2 0z" p-id="5639"></path></svg>