<svg id="图层_1" data-name="图层 1" xmlns="http://www.w3.org/2000/svg" viewBox="0 0 564 589.92"><defs><style>.cls-1{fill:#33485c;}</style></defs><title>输入密码</title><path class="cls-1" d="M307.2,461a25.6,25.6,0,1,1-51.2,0V358.56a25.6,25.6,0,1,1,51.2,0Zm205-230.4H187.44V151.05a99.56,99.56,0,1,1,199.12,0,25.6,25.6,0,1,0,51.2,0A151,151,0,0,0,287,.16c-83.13,0-150.74,67.69-150.74,150.89v79.51H51A51.2,51.2,0,0,0,0,281.84V537.71A51.2,51.2,0,0,0,51,589H512.2a51.2,51.2,0,0,0,51-51.25V281.84a51.2,51.2,0,0,0-51-51.28Zm0,0"/></svg>