<svg id="图层_1" data-name="图层 1" xmlns="http://www.w3.org/2000/svg" viewBox="0 0 737.03 737.47"><defs><style>.cls-1{}</style></defs><title>系统设置</title><path class="cls-1" d="M368.82,508.86c-77.39,0-140.35-62.86-140.35-140.12s63-140.16,140.35-140.16A140.39,140.39,0,0,1,509.17,368.74c0,77.26-63,140.12-140.35,140.12m329-202.6-.18,0-66-14.64L630,286.5a265,265,0,0,0-17.42-42l-2.34-4.56,35.52-59.19c10.86-17.34,15.47-41.2,1.3-55.4L613.66,91.88c-8.38-8.4-19.19-10.16-26.78-10.16a54.11,54.11,0,0,0-29.79,9.14l-.15.1L499.19,127.8l-4.72-2.46a274.32,274.32,0,0,0-41.77-17.52l-5-1.63L432.89,39.48l0-.18C429.45,20.4,412.91,0,392.12,0H344.91c-20.05,0-33.65,20.13-38.23,40.08l-16.42,65.81-4.91,1.56a273.57,273.57,0,0,0-44.48,18.72l-4.74,2.5L177,91l-.15-.1a54.07,54.07,0,0,0-29.77-9.14c-7.59,0-18.41,1.77-26.8,10.16l-33.38,33.4c-14.18,14.19-9.57,38.06,1.29,55.42l37.18,62-2.24,4.52A272.22,272.22,0,0,0,107,286.51l-1.6,5.09-66,14.63-.18,0C20.38,309.67,0,326.22,0,347v47.25c0,20.05,20.12,33.66,40.06,38.25l66.48,16.64,1.58,4.84a273.16,273.16,0,0,0,15,36.41l2.24,4.52L88.16,557c-10.86,17.33-15.47,41.18-1.29,55.38l33.41,33.41c8.37,8.38,19.18,10.14,26.78,10.14a54.19,54.19,0,0,0,29.79-9.11l.15-.1,59.24-37.8,4.74,2.5a273,273,0,0,0,44.74,18.81l4.91,1.56L307,697.39c4.58,20,18.18,40.08,38.23,40.08h47.22c20.79,0,37.32-20.38,40.71-39.27l0-.18L448,631.16l5-1.62a271.38,271.38,0,0,0,41.28-17.32l4.72-2.44,57.89,36.89.15.1a54.1,54.1,0,0,0,29.76,9.12c7.6,0,18.42-1.76,26.81-10.16l33.4-33.4c14.18-14.2,9.57-38.05-1.29-55.38l-35.53-59.26,2.31-4.55A279.23,279.23,0,0,0,628.91,454l1.59-4.85L697,432.5c19.94-4.59,40.06-18.19,40.06-38.25V347c0-20.78-20.38-37.33-39.26-40.74"/></svg>