<svg id="图层_1" data-name="图层 1" xmlns="http://www.w3.org/2000/svg" viewBox="0 0 441.13 390.68"><defs><style>.cls-1{fill:none;}.cls-2{fill:#329660;}</style></defs><title>时间选择</title><rect class="cls-1" x="-98.64" y="-69.32" width="505.92" height="563.76"/><path class="cls-2" d="M314.76,261.18,256.68,203.1V121.4a16.11,16.11,0,0,0-32.22,0v88.81a16.09,16.09,0,0,0,7.16,13.4L292,284a16.12,16.12,0,0,0,22.79,0h0A16.11,16.11,0,0,0,314.76,261.18Z"/><path class="cls-2" d="M390.56,65.43C336.9,7.67,270.23-13.17,194,8.21,114.79,30.41,67.88,85,53.23,165.41c-.17.9-.33,1.79-.51,2.65a11.39,11.39,0,0,0,.05,4.62H4.65a4.64,4.64,0,0,0-3.48,7.72l72.71,82.34a4.65,4.65,0,0,0,7,0l72.7-82.34a4.64,4.64,0,0,0-3.48-7.72H101.43a9,9,0,0,0,.18-1c.87-6.54,3.74-15.28,8.16-27,28.78-76.22,114.1-114.1,189.64-84.19C373.1,89.66,410,174.6,381.19,248.51c-31,79.38-120.08,114.83-200.38,75.51l-.19-.09a11.37,11.37,0,0,0-16.26,10.29v30.44a11.31,11.31,0,0,0,6.76,10.4c80.28,34.75,174.21,10.18,229.09-60.38C457.88,240.55,454.52,134.27,390.56,65.43Z"/></svg>