<svg id="图层_1" data-name="图层 1" xmlns="http://www.w3.org/2000/svg" viewBox="0 0 199.47 182.36"><title>附件</title><path d="M61.33,95.16l-.21.21L22.5,134a24.92,24.92,0,0,0,0,34.92l.25.38A24.93,24.93,0,0,0,57.53,169l43.57-43.69.23,0,46.9-47a10.85,10.85,0,0,0,.06-15.35l-.06-.06a10.87,10.87,0,0,0-7.69-3,10.63,10.63,0,0,0-7.72,3.09L65.39,130.44a7.92,7.92,0,0,1-10.92,0,7.64,7.64,0,0,1-.1-10.79l.1-.09L122,52a26.23,26.23,0,0,1,37.09,37.1L112.12,136l-.12.16-.11.1L68.32,179.79a40.29,40.29,0,0,1-56.22.44l-.43-.43a40.27,40.27,0,0,1,0-56.66L55.29,79.47l.28-.13,54.9-54.9a52,52,0,0,1,73.76,0,51.21,51.21,0,0,1,15.26,36.75,51.84,51.84,0,0,1-15.26,36.95l-75.6,75.6a7.61,7.61,0,0,1-10.77,0h0a7.58,7.58,0,0,1-.13-10.71l.13-.14,75.6-75.6a36.88,36.88,0,0,0-52.17-52.14l-59.94,60" transform="translate(-0.01 -9.09)"/></svg>