<svg id="图层_1" data-name="图层 1" xmlns="http://www.w3.org/2000/svg" viewBox="0 0 818.49 818.49"><defs><style>.cls-1{fill:#fff;}</style></defs><title>头像</title><path class="cls-1" d="M409.25,0C183.23,0,0,183.23,0,409.25S183.23,818.49,409.25,818.49,818.49,635.27,818.49,409.25,635.27,0,409.25,0Zm0,227.36A102.14,102.14,0,1,1,307.11,329.49,102.14,102.14,0,0,1,409.25,227.36ZM585,589.27H233.53c-5.59,0-10-3.76-9.72-9.34,3.76-69,45.24-127.59,104.19-156.31a9.77,9.77,0,0,1,10.05,1.2,119,119,0,0,0,142.39.17,9.68,9.68,0,0,1,10-.93c58.95,28.72,100.43,86.81,104.2,155.85.3,5.59-4.13,9.36-9.72,9.36Zm0,0"/></svg>