<svg id="图层_1" data-name="图层 1" xmlns="http://www.w3.org/2000/svg" viewBox="0 0 148.03 148"><title>新建</title><path d="M61.27,102.82A12.14,12.14,0,0,0,60.16,105c-.46,1-6.42,13-13.81,35.48A50.72,50.72,0,0,0,45.24,148c6.23-7.82,22.56-39.31,24.7-41.63,6.33-6.86,39.81-60.78,47.14-65.91-3.33,9.37-45.4,77.84-46.42,79.41,31.68,7,45.41-10.9,47.25-12.47l-14-2.5,17-5.12c11.2-11.5,14.23-29.52,14.23-29.52-1.29.46-14.83,4.48-17.13,5.13l18.51-10.12C137.85,60.19,147.62,37.19,148,0c-5,.37-55.42,15.34-87,99.5-.27,1.66-.18,2.77.28,3.32Z"/><rect y="45.94" width="49.85" height="11.18" rx="1.68" ry="1.68"/><rect x="-0.21" y="45.99" width="50.27" height="11.08" rx="1.68" ry="1.68" transform="translate(-26.61 76.46) rotate(-90)"/></svg>