<?xml version="1.0" encoding="utf-8"?>
<!-- Generator: Adobe Illustrator 22.0.1, SVG Export Plug-In . SVG Version: 6.00 Build 0)  -->
<svg version="1.1" id="图层_1" xmlns="http://www.w3.org/2000/svg" xmlns:xlink="http://www.w3.org/1999/xlink" x="0px" y="0px"
	 viewBox="0 0 820 820" style="enable-background:new 0 0 820 820;" xml:space="preserve">
<style type="text/css">
	.st0{fill:#AFD9F4;}
	.st1{clip-path:url(#SVGID_2_);fill:#61A3E0;}
	.st2{clip-path:url(#SVGID_2_);fill:#1E85D3;}
	.st3{clip-path:url(#SVGID_2_);fill:#FFFFFF;}
	.st4{clip-path:url(#SVGID_2_);fill:#FFE9DD;}
	.st5{clip-path:url(#SVGID_2_);fill:#FFDDCB;}
</style>
<title>like</title>
<circle class="st0" cx="410" cy="410" r="410"/>
<g>
	<defs>
		<rect id="SVGID_1_" x="124.2" y="103.9" width="571.5" height="572.2"/>
	</defs>
	<clipPath id="SVGID_2_">
		<use xlink:href="#SVGID_1_"  style="overflow:visible;"/>
	</clipPath>
	<path class="st1" d="M261.2,675.5H147c-12.6,0-22.8-10.3-22.8-22.8V287.2c0-12.6,10.3-22.8,22.8-22.8h114.2
		c12.6,0,22.8,10.3,22.8,22.8v365.4C284.1,665.2,273.8,675.5,261.2,675.5z"/>
	<path class="st2" d="M261.2,675.5H147c-12.6,0-22.8-10.3-22.8-22.8V527h159.9v125.6C284.1,665.2,273.8,675.5,261.2,675.5z"/>
	<path class="st3" d="M175.6,601.2c0,10.2,5.4,19.6,14.3,24.7c8.8,5.1,19.7,5.1,28.6,0c8.8-5.1,14.3-14.5,14.3-24.7
		c0-15.8-12.8-28.6-28.5-28.6C188.4,572.7,175.6,585.5,175.6,601.2z"/>
	<path class="st4" d="M603.8,287.2H489.1c-6.9,0-12.6-4.6-13.1-11.4c-0.6-3.4-0.6-6.9,0-9.7l6.9-37.1c8-46.3-2.9-92.5-40.5-117.1
		c-5.1-3.4-10.8-5.7-17.1-6.9c-1.1-0.6-2.3-0.6-3.4-0.6c-12.6,0-22.3,2.9-24.6,13.7L380,218.7c-0.6,2.9-1.1,6.3-1.7,9.1
		c-8.6,34.8-40.5,59.4-76.5,59.4h-17.7v365.4h283.2c36,0,67.4-24,77.1-58.2l48.5-195.3C706,342,662.7,287.2,603.8,287.2z"/>
	<path class="st5" d="M652.9,301.4c-17.7,87.9-77.7,283.2-272.4,351.2h186.1c36,0,67.4-24,77.1-58.2l48.5-195.3
		C702.1,359.7,684.4,321.4,652.9,301.4z"/>
</g>
</svg>
