<svg id="图层_1" data-name="图层 1" xmlns="http://www.w3.org/2000/svg" viewBox="0 0 820 821"><defs><style>.cls-1{fill:#ffbda3;}.cls-2{fill:#ff6d40;}.cls-3{fill:#ff3600;}.cls-4{fill:#fff;}.cls-5{fill:#ffe9dd;}.cls-6{fill:#ffddcb;}.cls-7{fill:none;}</style></defs><title>Point out</title><circle class="cls-1" cx="410" cy="410.5" r="410"/><path class="cls-2" d="M547.43,151.72H662.16a22.95,22.95,0,0,1,22.95,22.95V541.81a22.95,22.95,0,0,1-22.95,22.95H547.43a22.94,22.94,0,0,1-22.94-22.94V174.67A22.94,22.94,0,0,1,547.43,151.72Z"/><path class="cls-3" d="M547.43,151.72H662.16a23,23,0,0,1,23,22.95v126.2H524.48V174.67A23,23,0,0,1,547.43,151.72Z"/><path class="cls-4" d="M633.48,226.3A28.69,28.69,0,1,0,604.79,255,28.68,28.68,0,0,0,633.48,226.3Z"/><path class="cls-5" d="M203.24,541.81h115.3c6.89,0,12.62,4.59,13.2,11.47a28,28,0,0,1,0,9.75l-6.89,37.29c-8,46.46,2.87,92.93,40.73,117.6a45.32,45.32,0,0,0,17.21,6.88,7.33,7.33,0,0,0,3.44.57c12.62,0,22.38-2.87,24.67-13.76l17.21-101c.57-2.86,1.15-6.31,1.72-9.17,8.6-35,40.73-59.66,76.87-59.66h17.78V174.67H240a80.53,80.53,0,0,0-77.44,58.51L113.75,429.37C100.55,486.73,144.15,541.81,203.24,541.81Z"/><path class="cls-6" d="M153.91,527.46c17.78-88.34,78-284.52,273.63-352.79h-187a80.54,80.54,0,0,0-77.45,58.51L114.32,429.37C104.57,469,122.35,507.39,153.91,527.46Z"/><rect class="cls-7" x="110.89" y="151.07" width="574.17" height="574.87"/></svg>
