<?xml version="1.0" standalone="no"?><!DOCTYPE svg PUBLIC "-//W3C//DTD SVG 1.1//EN" "http://www.w3.org/Graphics/SVG/1.1/DTD/svg11.dtd"><svg t="1544520835516" class="icon" style="" viewBox="0 0 1024 1024" version="1.1" xmlns="http://www.w3.org/2000/svg" p-id="1304" xmlns:xlink="http://www.w3.org/1999/xlink" width="200" height="200"><defs><style type="text/css"></style></defs><path d="M693 480H544v-149c0-17.6-14.4-32-32-32s-32 14.4-32 32V480h-149c-17.6 0-32 12-32 32s15 32 32 32H480v149c0 19 14 32 32 32s32-14.4 32-32V544h149c17.6 0 32-14.4 32-32s-14.4-32-32-32z" p-id="1305"></path><path d="M512 152c96.2 0 186.6 37.4 254.6 105.4S872 415.8 872 512s-37.4 186.6-105.4 254.6S608.2 872 512 872c-96.2 0-186.6-37.4-254.6-105.4S152 608.2 152 512s37.4-186.6 105.4-254.6S415.8 152 512 152m0-56C282.2 96 96 282.2 96 512s186.2 416 416 416 416-186.2 416-416S741.8 96 512 96z" p-id="1306"></path></svg>