<svg id="图层_1" data-name="图层 1" xmlns="http://www.w3.org/2000/svg" xmlns:xlink="http://www.w3.org/1999/xlink" viewBox="0 0 999.83 819.2"><defs><style>.cls-1{fill:none;}.cls-2{fill:#fec43c;}.cls-3{fill:#ffd73a;}.cls-4{fill:#873a18;}.cls-5{fill:#fff;}.cls-6{fill:#f44444;}.cls-7{clip-path:url(#clip-path);}.cls-8{fill:#61a3e0;}</style><clipPath id="clip-path" transform="translate(0 -0.8)"><rect class="cls-1" x="0.06" width="999.94" height="820.94"/></clipPath></defs><title>Cry and laugh</title><circle class="cls-2" cx="499.92" cy="410.4" r="409.6" transform="translate(-143.77 472.9) rotate(-45)"/><path class="cls-3" d="M901.32,327.66C862.82,140.88,698.16.8,499.92.8,273.82.8,90.32,184.3,90.32,410.4a405.9,405.9,0,0,0,93.39,259.69c69.63,38.5,149.09,59.8,234.29,59.8C658.84,729.89,858.73,556.22,901.32,327.66Z" transform="translate(0 -0.8)"/><path class="cls-4" d="M499.92,623.39c-107.32,0-196.61-77.82-213-180.22A28.64,28.64,0,0,1,315.6,410.4H684.24a28.64,28.64,0,0,1,28.67,32.77C696.52,545.57,607.23,623.39,499.92,623.39Z" transform="translate(0 -0.8)"/><path class="cls-5" d="M684.24,410.4H315.6a28.64,28.64,0,0,0-28.67,32.77,125.46,125.46,0,0,0,3.27,17.2H708.81a127,127,0,0,0,3.28-17.2C715.37,426,701.44,410.4,684.24,410.4Z" transform="translate(0 -0.8)"/><path class="cls-6" d="M560.54,509.52c-24.58,0-46.7,12.29-60.62,31.13-13.11-18.84-35.23-31.13-60.62-31.13-38.51,0-70.46,29.5-73.73,67.18,36.86,29.49,83.55,46.69,134.35,46.69s97.48-17.2,134.35-46.69C631,539,599,509.52,560.54,509.52Z" transform="translate(0 -0.8)"/><g class="cls-7"><path class="cls-4" d="M778.45,344.86a16.43,16.43,0,0,1-16.39-16.38,65.54,65.54,0,0,0-131.07,0,16.39,16.39,0,0,1-32.77,0c0-54.07,44.24-98.31,98.3-98.31s98.31,44.24,98.31,98.31A16.43,16.43,0,0,1,778.45,344.86Zm-393.22,0a16.44,16.44,0,0,1-16.39-16.38,65.54,65.54,0,0,0-131.07,0,16.39,16.39,0,0,1-32.77,0c0-54.07,44.24-98.31,98.31-98.31s98.3,44.24,98.3,98.31A16.43,16.43,0,0,1,385.23,344.86Z" transform="translate(0 -0.8)"/><path class="cls-8" d="M24,558.67a81.58,81.58,0,0,0,115.51,0c52.43-52.43,69.63-185.14,69.63-185.14S75.57,390.74,24,443.17C-8,474.3-8,526.73,24,558.67Zm951.91,0a81.58,81.58,0,0,1-115.51,0c-52.42-52.43-69.63-185.14-69.63-185.14s133.53,17.21,185.14,69.64C1007.82,474.3,1007.82,526.73,975.87,558.67Z" transform="translate(0 -0.8)"/></g></svg>
