<svg id="图层_1" data-name="图层 1" xmlns="http://www.w3.org/2000/svg" viewBox="0 0 753.66 682.39"><defs><style>.cls-1{}</style></defs><title>会议管理</title><path class="cls-1" d="M540.67,583.27l55.71,52.43a25.49,25.49,0,1,1-36,36l-85.19-81.92-6.56-6.55H288.36c0,3.28-3.28,3.28-3.28,6.55L199.89,675a25.49,25.49,0,0,1-36-36l55.71-55.71H85.19c-29.48,0-52.42-22.94-52.42-52.43V32.77H16.38C6.55,32.77,0,26.21,0,16.38S6.55,0,16.38,0h720.9c9.83,0,16.38,6.55,16.38,16.38s-6.55,16.39-16.38,16.39H720.9V530.84c0,29.49-22.94,52.43-52.43,52.43ZM196.61,206.44c-13.11,0-26.21,13.11-26.21,26.21s13.1,26.22,26.21,26.22H419.43c13.11,0,26.21-13.11,26.21-26.22s-13.1-26.21-26.21-26.21Zm0,137.62c-13.11,0-26.21,13.11-26.21,26.22s13.1,26.21,26.21,26.21H557.06c13.1,0,26.21-13.1,26.21-26.21s-13.11-26.22-26.21-26.22Zm0,0"/></svg>