<svg id="图层_1" data-name="图层 1" xmlns="http://www.w3.org/2000/svg" viewBox="0 0 573.76 720"><defs><style>.cls-1{fill:#d81e06;}</style></defs><title>PDF</title><path class="cls-1" d="M371.28,607.52V720l135-135H393.76a22.57,22.57,0,0,0-22.48,22.56ZM551.28,0H81.6A33.77,33.77,0,0,0,47.84,33.76H517.52A22.5,22.5,0,0,1,540,56.24V525.68a33.77,33.77,0,0,0,33.76-33.52V22.48A22.5,22.5,0,0,0,551.28,0ZM117.2,441.68c.4.64,3.84,2.88,9.68,2.88a28.44,28.44,0,0,0,12.4-3.12c3.76-1.92,11-6.88,23.44-20.24-6.8,1.76-13.28,3.6-19.28,5.44-21,6.48-26.08,13.52-26.24,15ZM260.56,325.36l-.4.64-.16-.32c-12,19.68-26.08,40.72-39.84,59.84l1-.24-.56.72a679.07,679.07,0,0,1,73.28-8.32l-.56-.72h.8a477,477,0,0,1-33.6-51.6Zm7.68-64c8.32-32.72-1-51.84-5.12-53.44-.64.8-7.2,9.28-8.16,35.76-.24,6.24,1,16.56,7,32.64,4.48-9.28,5.84-13.6,6.24-15Zm110,149.6c-4.32-3.12-14-7.76-34.8-10A128.64,128.64,0,0,0,357,413.12c17.92,13.36,27.28,14.8,30.4,14.8a5.5,5.5,0,0,0,1.92-.24c.48-1.36-1.28-9.76-11-16.72ZM483.76,67.52H22.48A22.5,22.5,0,0,0,0,90V697.52A22.5,22.5,0,0,0,22.48,720H348.72V585a22.5,22.5,0,0,1,22.48-22.48h135V90a22.5,22.5,0,0,0-22.48-22.48ZM410.4,434.8c-3.12,9.76-11.76,15.52-23,15.52-11.92,0-26.72-6.48-43.92-19.28-10.88-8.08-22.64-20.88-31.6-31.44-32.08.4-72.56,5.12-112.48,13.12-20.88,26.16-37.76,42.56-50.08,48.8A50.65,50.65,0,0,1,126.88,467c-16.88,0-30-9.12-31.92-22.16-1.44-9.6,2.08-27.52,41.92-39.76,14.72-4.48,31.92-8.88,50.08-12.72a912.51,912.51,0,0,0,61.36-90.88c-11-23.84-16.4-43.52-15.84-58.72,2-51.76,22.4-57.28,31.12-57.28,7.2,0,14.08,3.76,19.36,10.56,9.2,11.84,15.84,36.64,7.12,70.88-1.92,7.44-7.36,19.36-16.32,35.44,12.48,24.32,30.32,51.6,49,74.88,32.16.64,55.36,5.84,68.8,15.52,15.44,11,23.28,28.4,18.88,42Zm0,0"/></svg>