<?xml version="1.0" standalone="no"?><!DOCTYPE svg PUBLIC "-//W3C//DTD SVG 1.1//EN" "http://www.w3.org/Graphics/SVG/1.1/DTD/svg11.dtd"><svg t="1550900861608" class="icon" style="" viewBox="0 0 1024 1024" version="1.1" xmlns="http://www.w3.org/2000/svg" p-id="980" xmlns:xlink="http://www.w3.org/1999/xlink" width="200" height="200"><defs><style type="text/css"></style></defs><path d="M988.0576 963.547136c0.294912-6.858752 0.473088-13.740032 0.473088-20.666368 0-151.18336-70.416384-285.906944-180.224-373.204992-81.348608 64.673792-184.307712 103.33184-296.308736 103.33184-111.998976 0-214.956032-38.658048-296.306688-103.33184-109.809664 87.298048-180.226048 222.019584-180.226048 373.204992 0 6.926336 0.180224 13.807616 0.47104 20.666368L988.0576 963.547136z" p-id="981"></path><path d="M773.363712 290.080768c-67.137536 0-121.563136-54.4256-121.563136-121.565184 0-21.837824 5.787648-42.317824 15.867904-60.028928C623.958016 76.695552 570.185728 57.892864 512 57.892864c-146.36032 0-265.009152 118.648832-265.009152 265.009152s118.648832 265.0112 265.009152 265.0112c146.362368 0 265.009152-118.65088 265.009152-265.0112 0-11.137024-0.770048-22.085632-2.097152-32.86016C774.391808 290.048 773.881856 290.080768 773.363712 290.080768z" p-id="982"></path><path d="M772.755456 73.089024c-52.36736 0-94.820352 42.452992-94.820352 94.820352 0 52.36736 42.452992 94.820352 94.820352 94.820352s94.820352-42.452992 94.820352-94.820352C867.575808 115.542016 825.124864 73.089024 772.755456 73.089024zM832.456704 178.046976l-49.5616 0 0 49.563648-20.277248 0L762.617856 178.046976l-49.559552 0 0-20.2752 49.559552 0L762.617856 108.20608l20.277248 0 0 49.565696 49.5616 0L832.456704 178.046976z" p-id="983"></path></svg>