<?xml version="1.0" standalone="no"?><!DOCTYPE svg PUBLIC "-//W3C//DTD SVG 1.1//EN" "http://www.w3.org/Graphics/SVG/1.1/DTD/svg11.dtd"><svg class="icon" width="200px" height="200.00px" viewBox="0 0 1024 1024" version="1.1" xmlns="http://www.w3.org/2000/svg"><path d="M863.84375 746.72070313l-186.41601563-72.56250001s-35.54296875-13.81640625-49.35937499-27.36914062c-8.859375-8.70117188-8.2265625-29.26757813-0.36914063-55.52929688 7.85742188-26.26171875 103.41210938-132.99609375 103.41210938-229.921875C731.11132813 211.51953125 632.55078125 90.125 510.99804687 90.125 389.4453125 90.125 290.88476562 211.51953125 290.88476562 361.28515625c0 92.86523438 85.16601563 203.5546875 95.66015626 223.69921875 10.546875 20.14453125 7.96289063 50.8359375-0.31640625 60.1171875-12.49804688 13.97460938-58.0078125 27.94921875-58.0078125 27.94921875l-168.06445313 74.77734375C120.86914062 761.9609375 90.125 798.98046875 90.125 840.640625v19.828125C90.125 906.03125 127.14453125 933.875 172.65429687 933.875h678.69140625c45.50976563 0 82.52929688-27.84375 82.52929688-73.40625v-19.828125c0-41.71289063-30.74414063-79.83984375-70.03125-93.91992188z" /></svg>