<?xml version="1.0" encoding="utf-8"?>
<!-- Generator: Adobe Illustrator 22.0.1, SVG Export Plug-In . SVG Version: 6.00 Build 0)  -->
<svg version="1.1" id="图层_1" xmlns="http://www.w3.org/2000/svg" xmlns:xlink="http://www.w3.org/1999/xlink" x="0px" y="0px"
	 viewBox="0 0 460.8 460.7" style="enable-background:new 0 0 460.8 460.7;" xml:space="preserve">
<path d="M342.5,307.3c11.2,11.1,22.3,22.1,33.4,33.2c25.6,25.6,51.2,51.1,76.7,76.7c14.4,14.5,9,37.5-10.1,42.6
	c-9.9,2.6-18.3-0.4-25.5-7.6c-27.2-27.3-54.4-54.5-81.6-81.7c-9.3-9.3-18.5-18.6-27.9-28.1c-46.6,34.3-98.2,46.7-154.6,35.5
	c-47.5-9.5-86-34.3-114.9-73.1C-21,225.5-10.2,116.5,62.7,49.6c71.4-65.4,180.6-66.4,254.4-1.8C390.8,112.2,405,224.5,342.5,307.3z
	 M332.3,190.8C332.1,113,268.4,49.5,190.9,49.7C113,49.9,49.6,113.5,49.8,191.1c0.2,77.8,63.8,141.3,141.4,141.1
	C268.9,332,332.5,268.3,332.3,190.8z"/>
</svg>
