<?xml version="1.0" standalone="no"?><!DOCTYPE svg PUBLIC "-//W3C//DTD SVG 1.1//EN" "http://www.w3.org/Graphics/SVG/1.1/DTD/svg11.dtd"><svg t="1550901235075" class="icon" style="" viewBox="0 0 1024 1024" version="1.1" xmlns="http://www.w3.org/2000/svg" p-id="1796" xmlns:xlink="http://www.w3.org/1999/xlink" width="200" height="200"><defs><style type="text/css"></style></defs><path d="M512 0a512 512 0 1 0 512 512A512 512 0 0 0 512 0z m0 960a448 448 0 1 1 448-448 448 448 0 0 1-448 448z" p-id="1797"></path><path d="M544 496.32V299.84a32 32 0 1 0-64 0v209.92a32 32 0 0 0 10.88 23.68 32 32 0 0 0 6.08 7.36L747.2 743.36a32 32 0 0 0 40.32-49.6z" p-id="1798"></path></svg>