<svg id="图层_1" data-name="图层 1" xmlns="http://www.w3.org/2000/svg" xmlns:xlink="http://www.w3.org/1999/xlink" viewBox="0 0 819.15 819.2"><defs><style>.cls-1{fill:none;}.cls-2{clip-path:url(#clip-path);}.cls-3{fill:#fec43c;}.cls-4{fill:#ffd73a;}.cls-5{fill:#fff;}.cls-6{fill:#873a18;}.cls-7{fill:#373740;}</style><clipPath id="clip-path" transform="translate(0 -0.8)"><rect class="cls-1" x="0.06" width="819.94" height="820.94"/></clipPath></defs><title>doubt</title><g class="cls-2"><circle class="cls-3" cx="409.57" cy="409.62" r="409.58"/><path class="cls-4" d="M811,327.69C772.46,140.92,607.81.85,409.57.85,183.49.85,0,184.34,0,410.42A405.92,405.92,0,0,0,93.38,670.1c69.63,38.5,149.09,59.79,234.28,59.79C568.49,729.89,768.36,556.23,811,327.69Z" transform="translate(0 -0.8)"/></g><path class="cls-5" d="M110.59,344.89a127,127,0,1,0,127-127A127,127,0,0,0,110.59,344.89Z" transform="translate(0 -0.8)"/><path class="cls-5" d="M454.63,344.89a127,127,0,1,0,63.48-110A127,127,0,0,0,454.63,344.89Z" transform="translate(0 -0.8)"/><path class="cls-6" d="M548.83,263a65.53,65.53,0,1,0,65.53,65.53A65.72,65.72,0,0,0,548.83,263Zm-344,0a65.53,65.53,0,1,0,65.53,65.53A65.73,65.73,0,0,0,204.79,263Z" transform="translate(0 -0.8)"/><g class="cls-2"><path class="cls-6" d="M405.48,648a82.15,82.15,0,0,1-81.91-81.92V533.3a81.91,81.91,0,1,1,163.82,0v32.76A82.15,82.15,0,0,1,405.48,648Z" transform="translate(0 -0.8)"/><path class="cls-7" d="M689.73,5.77a95,95,0,0,0-57.35,50.78c-11.46,23.76-13.1,51.61-4.09,76.18,4.09,10.65,15.56,16.39,26.21,12.29s16.38-15.56,12.29-26.21a52.28,52.28,0,0,1,2.46-44.24,57,57,0,0,1,33.58-29.49c28.67-9.83,60.62,5.74,71.27,33.59,9,22.11,3.28,46.69-13.93,63.07-20.47,19.66-27.85,49.15-18.84,74.54l9,25.4c4.1,10.65,15.57,16.38,26.21,12.29s16.39-15.57,12.29-26.22l-9-25.39c-4.1-10.65-.82-22.12,8.19-30.31,29.49-27.85,38.5-70.45,23.76-108.13C792.94,14.77,738.05-10.62,689.73,5.77Z" transform="translate(0 -0.8)"/></g><path class="cls-7" d="M770,303.12a24.58,24.58,0,1,0,12.29-21.28A24.59,24.59,0,0,0,770,303.12Z" transform="translate(0 -0.8)"/></svg>
