<svg id="图层_1" data-name="图层 1" xmlns="http://www.w3.org/2000/svg" xmlns:xlink="http://www.w3.org/1999/xlink" viewBox="0 0 819.2 819.2"><defs><style>.cls-1{fill:none;}.cls-2{clip-path:url(#clip-path);}.cls-3{fill:#fec43c;}.cls-4{fill:#ffd73a;}.cls-5{fill:#873a18;}</style><clipPath id="clip-path" transform="translate(0 -0.8)"><rect class="cls-1" x="0.06" width="819.94" height="820.94"/></clipPath></defs><title>Bored expression</title><g class="cls-2"><circle class="cls-3" cx="409.6" cy="410.4" r="409.6" transform="translate(-170.23 409.04) rotate(-45)"/><path class="cls-4" d="M811,327.66C772.5,140.88,607.85.8,409.6.8,183.5.8,0,184.3,0,410.4A406,406,0,0,0,93.39,670.09c69.63,38.5,149.09,59.8,234.29,59.8C568.52,729.89,768.41,556.22,811,327.66Z" transform="translate(0 -0.8)"/></g><path class="cls-5" d="M647.17,303.91H532.48a24.58,24.58,0,0,1,0-49.16H647.17a24.58,24.58,0,0,1,0,49.16Zm-360.45,0H172a24.58,24.58,0,0,1,0-49.16H286.72a24.58,24.58,0,0,1,0,49.16ZM467,443.17H352.26a24.58,24.58,0,1,1,0-49.15H467a24.58,24.58,0,0,1,0,49.15Z" transform="translate(0 -0.8)"/></svg>
